<svg xmlns="http://www.w3.org/2000/svg" width="145.17" height="223.04" viewBox="0 0 145.17 223.04"><title>stem-backgroundAsset 2</title><g id="add3b680-7f6c-42d4-a359-e365ddf04c25" data-name="Layer 2"><g id="ed6201f1-c0b7-4cd0-babf-b02d22d2ff84" data-name="Your Design"><polygon points="2.28 0 4.56 2.76 2.28 5.52 0 2.76 2.28 0"/><polygon points="14 0 16.28 2.76 14 5.52 11.72 2.76 14 0"/><polygon points="25.72 0 28 2.76 25.72 5.52 23.43 2.76 25.72 0"/><polygon points="37.43 0 39.72 2.76 37.43 5.52 35.15 2.76 37.43 0"/><polygon points="49.15 0 51.43 2.76 49.15 5.52 46.87 2.76 49.15 0"/><polygon points="60.87 0 63.15 2.76 60.87 5.52 58.59 2.76 60.87 0"/><polygon points="72.59 0 74.87 2.76 72.59 5.52 70.31 2.76 72.59 0"/><polygon points="84.31 0 86.59 2.76 84.31 5.52 82.02 2.76 84.31 0"/><polygon points="96.02 0 98.3 2.76 96.02 5.52 93.74 2.76 96.02 0"/><polygon points="107.74 0 110.02 2.76 107.74 5.52 105.46 2.76 107.74 0"/><polygon points="119.46 0 121.74 2.76 119.46 5.52 117.18 2.76 119.46 0"/><polygon points="131.18 0 133.46 2.76 131.18 5.52 128.9 2.76 131.18 0"/><polygon points="142.89 0 145.17 2.76 142.89 5.52 140.61 2.76 142.89 0"/><polygon points="2.28 13.6 4.56 16.36 2.28 19.12 0 16.36 2.28 13.6"/><polygon points="14 13.6 16.28 16.36 14 19.12 11.72 16.36 14 13.6"/><polygon points="25.72 13.6 28 16.36 25.72 19.12 23.43 16.36 25.72 13.6"/><polygon points="37.43 13.6 39.72 16.36 37.43 19.12 35.15 16.36 37.43 13.6"/><polygon points="49.15 13.6 51.43 16.36 49.15 19.12 46.87 16.36 49.15 13.6"/><polygon points="60.87 13.6 63.15 16.36 60.87 19.12 58.59 16.36 60.87 13.6"/><polygon points="72.59 13.6 74.87 16.36 72.59 19.12 70.31 16.36 72.59 13.6"/><polygon points="84.31 13.6 86.59 16.36 84.31 19.12 82.02 16.36 84.31 13.6"/><polygon points="96.02 13.6 98.3 16.36 96.02 19.12 93.74 16.36 96.02 13.6"/><polygon points="107.74 13.6 110.02 16.36 107.74 19.12 105.46 16.36 107.74 13.6"/><polygon points="119.46 13.6 121.74 16.36 119.46 19.12 117.18 16.36 119.46 13.6"/><polygon points="131.18 13.6 133.46 16.36 131.18 19.12 128.9 16.36 131.18 13.6"/><polygon points="142.89 13.6 145.17 16.36 142.89 19.12 140.61 16.36 142.89 13.6"/><polygon points="8.16 6.31 10.44 9.07 8.16 11.84 5.88 9.07 8.16 6.31"/><polygon points="19.88 6.31 22.16 9.07 19.88 11.84 17.59 9.07 19.88 6.31"/><polygon points="31.59 6.31 33.87 9.07 31.59 11.84 29.31 9.07 31.59 6.31"/><polygon points="43.3 6.31 45.58 9.07 43.3 11.84 41.02 9.07 43.3 6.31"/><polygon points="55.02 6.31 57.3 9.07 55.02 11.84 52.73 9.07 55.02 6.31"/><polygon points="66.73 6.31 69.01 9.07 66.73 11.84 64.45 9.07 66.73 6.31"/><polygon points="78.44 6.31 80.72 9.07 78.44 11.84 76.16 9.07 78.44 6.31"/><polygon points="90.16 6.31 92.44 9.07 90.16 11.84 87.88 9.07 90.16 6.31"/><polygon points="101.87 6.31 104.15 9.07 101.87 11.84 99.59 9.07 101.87 6.31"/><polygon points="113.58 6.31 115.86 9.07 113.58 11.84 111.3 9.07 113.58 6.31"/><polygon points="125.3 6.31 127.58 9.07 125.3 11.84 123.02 9.07 125.3 6.31"/><polygon points="137.01 6.31 139.29 9.07 137.01 11.84 134.73 9.07 137.01 6.31"/><polygon points="2.28 27.19 4.56 29.95 2.28 32.71 0 29.95 2.28 27.19"/><polygon points="14 27.19 16.28 29.95 14 32.71 11.72 29.95 14 27.19"/><polygon points="25.72 27.19 28 29.95 25.72 32.71 23.43 29.95 25.72 27.19"/><polygon points="37.43 27.19 39.72 29.95 37.43 32.71 35.15 29.95 37.43 27.19"/><polygon points="49.15 27.19 51.43 29.95 49.15 32.71 46.87 29.95 49.15 27.19"/><polygon points="60.87 27.19 63.15 29.95 60.87 32.71 58.59 29.95 60.87 27.19"/><polygon points="72.59 27.19 74.87 29.95 72.59 32.71 70.31 29.95 72.59 27.19"/><polygon points="84.31 27.19 86.59 29.95 84.31 32.71 82.02 29.95 84.31 27.19"/><polygon points="96.02 27.19 98.3 29.95 96.02 32.71 93.74 29.95 96.02 27.19"/><polygon points="107.74 27.19 110.02 29.95 107.74 32.71 105.46 29.95 107.74 27.19"/><polygon points="119.46 27.19 121.74 29.95 119.46 32.71 117.18 29.95 119.46 27.19"/><polygon points="131.18 27.19 133.46 29.95 131.18 32.71 128.9 29.95 131.18 27.19"/><polygon points="142.89 27.19 145.17 29.95 142.89 32.71 140.61 29.95 142.89 27.19"/><polygon points="8.16 19.91 10.44 22.67 8.16 25.43 5.88 22.67 8.16 19.91"/><polygon points="19.88 19.91 22.16 22.67 19.88 25.43 17.59 22.67 19.88 19.91"/><polygon points="31.59 19.91 33.87 22.67 31.59 25.43 29.31 22.67 31.59 19.91"/><polygon points="43.3 19.91 45.58 22.67 43.3 25.43 41.02 22.67 43.3 19.91"/><polygon points="55.02 19.91 57.3 22.67 55.02 25.43 52.73 22.67 55.02 19.91"/><polygon points="66.73 19.91 69.01 22.67 66.73 25.43 64.45 22.67 66.73 19.91"/><polygon points="78.44 19.91 80.72 22.67 78.44 25.43 76.16 22.67 78.44 19.91"/><polygon points="90.16 19.91 92.44 22.67 90.16 25.43 87.88 22.67 90.16 19.91"/><polygon points="101.87 19.91 104.15 22.67 101.87 25.43 99.59 22.67 101.87 19.91"/><polygon points="113.58 19.91 115.86 22.67 113.58 25.43 111.3 22.67 113.58 19.91"/><polygon points="125.3 19.91 127.58 22.67 125.3 25.43 123.02 22.67 125.3 19.91"/><polygon points="137.01 19.91 139.29 22.67 137.01 25.43 134.73 22.67 137.01 19.91"/><polygon points="2.28 40.78 4.56 43.55 2.28 46.31 0 43.55 2.28 40.78"/><polygon points="14 40.78 16.28 43.55 14 46.31 11.72 43.55 14 40.78"/><polygon points="25.72 40.78 28 43.55 25.72 46.31 23.43 43.55 25.72 40.78"/><polygon points="37.43 40.78 39.72 43.55 37.43 46.31 35.15 43.55 37.43 40.78"/><polygon points="49.15 40.78 51.43 43.55 49.15 46.31 46.87 43.55 49.15 40.78"/><polygon points="60.87 40.78 63.15 43.55 60.87 46.31 58.59 43.55 60.87 40.78"/><polygon points="72.59 40.78 74.87 43.55 72.59 46.31 70.31 43.55 72.59 40.78"/><polygon points="84.31 40.78 86.59 43.55 84.31 46.31 82.02 43.55 84.31 40.78"/><polygon points="96.02 40.78 98.3 43.55 96.02 46.31 93.74 43.55 96.02 40.78"/><polygon points="107.74 40.78 110.02 43.55 107.74 46.31 105.46 43.55 107.74 40.78"/><polygon points="119.46 40.78 121.74 43.55 119.46 46.31 117.18 43.55 119.46 40.78"/><polygon points="131.18 40.78 133.46 43.55 131.18 46.31 128.9 43.55 131.18 40.78"/><polygon points="142.89 40.78 145.17 43.55 142.89 46.31 140.61 43.55 142.89 40.78"/><polygon points="8.16 33.5 10.44 36.26 8.16 39.03 5.88 36.26 8.16 33.5"/><polygon points="19.88 33.5 22.16 36.26 19.88 39.03 17.59 36.26 19.88 33.5"/><polygon points="31.59 33.5 33.87 36.26 31.59 39.03 29.31 36.26 31.59 33.5"/><polygon points="43.3 33.5 45.58 36.26 43.3 39.03 41.02 36.26 43.3 33.5"/><polygon points="55.02 33.5 57.3 36.26 55.02 39.03 52.73 36.26 55.02 33.5"/><polygon points="66.73 33.5 69.01 36.26 66.73 39.03 64.45 36.26 66.73 33.5"/><polygon points="78.44 33.5 80.72 36.26 78.44 39.03 76.16 36.26 78.44 33.5"/><polygon points="90.16 33.5 92.44 36.26 90.16 39.03 87.88 36.26 90.16 33.5"/><polygon points="101.87 33.5 104.15 36.26 101.87 39.03 99.59 36.26 101.87 33.5"/><polygon points="113.58 33.5 115.86 36.26 113.58 39.03 111.3 36.26 113.58 33.5"/><polygon points="125.3 33.5 127.58 36.26 125.3 39.03 123.02 36.26 125.3 33.5"/><polygon points="137.01 33.5 139.29 36.26 137.01 39.03 134.73 36.26 137.01 33.5"/><polygon points="2.28 54.38 4.56 57.14 2.28 59.9 0 57.14 2.28 54.38"/><polygon points="14 54.38 16.28 57.14 14 59.9 11.72 57.14 14 54.38"/><polygon points="25.72 54.38 28 57.14 25.72 59.9 23.43 57.14 25.72 54.38"/><polygon points="37.43 54.38 39.72 57.14 37.43 59.9 35.15 57.14 37.43 54.38"/><polygon points="49.15 54.38 51.43 57.14 49.15 59.9 46.87 57.14 49.15 54.38"/><polygon points="60.87 54.38 63.15 57.14 60.87 59.9 58.59 57.14 60.87 54.38"/><polygon points="72.59 54.38 74.87 57.14 72.59 59.9 70.31 57.14 72.59 54.38"/><polygon points="84.31 54.38 86.59 57.14 84.31 59.9 82.02 57.14 84.31 54.38"/><polygon points="96.02 54.38 98.3 57.14 96.02 59.9 93.74 57.14 96.02 54.38"/><polygon points="107.74 54.38 110.02 57.14 107.74 59.9 105.46 57.14 107.74 54.38"/><polygon points="119.46 54.38 121.74 57.14 119.46 59.9 117.18 57.14 119.46 54.38"/><polygon points="131.18 54.38 133.46 57.14 131.18 59.9 128.9 57.14 131.18 54.38"/><polygon points="142.89 54.38 145.17 57.14 142.89 59.9 140.61 57.14 142.89 54.38"/><polygon points="8.16 47.1 10.44 49.86 8.16 52.62 5.88 49.86 8.16 47.1"/><polygon points="19.88 47.1 22.16 49.86 19.88 52.62 17.59 49.86 19.88 47.1"/><polygon points="31.59 47.1 33.87 49.86 31.59 52.62 29.31 49.86 31.59 47.1"/><polygon points="43.3 47.1 45.58 49.86 43.3 52.62 41.02 49.86 43.3 47.1"/><polygon points="55.02 47.1 57.3 49.86 55.02 52.62 52.73 49.86 55.02 47.1"/><polygon points="66.73 47.1 69.01 49.86 66.73 52.62 64.45 49.86 66.73 47.1"/><polygon points="78.44 47.1 80.72 49.86 78.44 52.62 76.16 49.86 78.44 47.1"/><polygon points="90.16 47.1 92.44 49.86 90.16 52.62 87.88 49.86 90.16 47.1"/><polygon points="101.87 47.1 104.15 49.86 101.87 52.62 99.59 49.86 101.87 47.1"/><polygon points="113.58 47.1 115.86 49.86 113.58 52.62 111.3 49.86 113.58 47.1"/><polygon points="125.3 47.1 127.58 49.86 125.3 52.62 123.02 49.86 125.3 47.1"/><polygon points="137.01 47.1 139.29 49.86 137.01 52.62 134.73 49.86 137.01 47.1"/><polygon points="2.28 67.97 4.56 70.73 2.28 73.5 0 70.73 2.28 67.97"/><polygon points="14 67.97 16.28 70.73 14 73.5 11.72 70.73 14 67.97"/><polygon points="25.72 67.97 28 70.73 25.72 73.5 23.43 70.73 25.72 67.97"/><polygon points="37.43 67.97 39.72 70.73 37.43 73.5 35.15 70.73 37.43 67.97"/><polygon points="49.15 67.97 51.43 70.73 49.15 73.5 46.87 70.73 49.15 67.97"/><polygon points="60.87 67.97 63.15 70.73 60.87 73.5 58.59 70.73 60.87 67.97"/><polygon points="72.59 67.97 74.87 70.73 72.59 73.5 70.31 70.73 72.59 67.97"/><polygon points="84.31 67.97 86.59 70.73 84.31 73.5 82.02 70.73 84.31 67.97"/><polygon points="96.02 67.97 98.3 70.73 96.02 73.5 93.74 70.73 96.02 67.97"/><polygon points="107.74 67.97 110.02 70.73 107.74 73.5 105.46 70.73 107.74 67.97"/><polygon points="119.46 67.97 121.74 70.73 119.46 73.5 117.18 70.73 119.46 67.97"/><polygon points="131.18 67.97 133.46 70.73 131.18 73.5 128.9 70.73 131.18 67.97"/><polygon points="142.89 67.97 145.17 70.73 142.89 73.5 140.61 70.73 142.89 67.97"/><polygon points="8.16 60.69 10.44 63.45 8.16 66.22 5.88 63.45 8.16 60.69"/><polygon points="19.88 60.69 22.16 63.45 19.88 66.22 17.59 63.45 19.88 60.69"/><polygon points="31.59 60.69 33.87 63.45 31.59 66.22 29.31 63.45 31.59 60.69"/><polygon points="43.3 60.69 45.58 63.45 43.3 66.22 41.02 63.45 43.3 60.69"/><polygon points="55.02 60.69 57.3 63.45 55.02 66.22 52.73 63.45 55.02 60.69"/><polygon points="66.73 60.69 69.01 63.45 66.73 66.22 64.45 63.45 66.73 60.69"/><polygon points="78.44 60.69 80.72 63.45 78.44 66.22 76.16 63.45 78.44 60.69"/><polygon points="90.16 60.69 92.44 63.45 90.16 66.22 87.88 63.45 90.16 60.69"/><polygon points="101.87 60.69 104.15 63.45 101.87 66.22 99.59 63.45 101.87 60.69"/><polygon points="113.58 60.69 115.86 63.45 113.58 66.22 111.3 63.45 113.58 60.69"/><polygon points="125.3 60.69 127.58 63.45 125.3 66.22 123.02 63.45 125.3 60.69"/><polygon points="137.01 60.69 139.29 63.45 137.01 66.22 134.73 63.45 137.01 60.69"/><polygon points="2.28 81.57 4.56 84.33 2.28 87.09 0 84.33 2.28 81.57"/><polygon points="14 81.57 16.28 84.33 14 87.09 11.72 84.33 14 81.57"/><polygon points="25.72 81.57 28 84.33 25.72 87.09 23.43 84.33 25.72 81.57"/><polygon points="37.43 81.57 39.72 84.33 37.43 87.09 35.15 84.33 37.43 81.57"/><polygon points="49.15 81.57 51.43 84.33 49.15 87.09 46.87 84.33 49.15 81.57"/><polygon points="60.87 81.57 63.15 84.33 60.87 87.09 58.59 84.33 60.87 81.57"/><polygon points="72.59 81.57 74.87 84.33 72.59 87.09 70.31 84.33 72.59 81.57"/><polygon points="84.31 81.57 86.59 84.33 84.31 87.09 82.02 84.33 84.31 81.57"/><polygon points="96.02 81.57 98.3 84.33 96.02 87.09 93.74 84.33 96.02 81.57"/><polygon points="107.74 81.57 110.02 84.33 107.74 87.09 105.46 84.33 107.74 81.57"/><polygon points="119.46 81.57 121.74 84.33 119.46 87.09 117.18 84.33 119.46 81.57"/><polygon points="131.18 81.57 133.46 84.33 131.18 87.09 128.9 84.33 131.18 81.57"/><polygon points="142.89 81.57 145.17 84.33 142.89 87.09 140.61 84.33 142.89 81.57"/><polygon points="8.16 74.29 10.44 77.05 8.16 79.81 5.88 77.05 8.16 74.29"/><polygon points="19.88 74.29 22.16 77.05 19.88 79.81 17.59 77.05 19.88 74.29"/><polygon points="31.59 74.29 33.87 77.05 31.59 79.81 29.31 77.05 31.59 74.29"/><polygon points="43.3 74.29 45.58 77.05 43.3 79.81 41.02 77.05 43.3 74.29"/><polygon points="55.02 74.29 57.3 77.05 55.02 79.81 52.73 77.05 55.02 74.29"/><polygon points="66.73 74.29 69.01 77.05 66.73 79.81 64.45 77.05 66.73 74.29"/><polygon points="78.44 74.29 80.72 77.05 78.44 79.81 76.16 77.05 78.44 74.29"/><polygon points="90.16 74.29 92.44 77.05 90.16 79.81 87.88 77.05 90.16 74.29"/><polygon points="101.87 74.29 104.15 77.05 101.87 79.81 99.59 77.05 101.87 74.29"/><polygon points="113.58 74.29 115.86 77.05 113.58 79.81 111.3 77.05 113.58 74.29"/><polygon points="125.3 74.29 127.58 77.05 125.3 79.81 123.02 77.05 125.3 74.29"/><polygon points="137.01 74.29 139.29 77.05 137.01 79.81 134.73 77.05 137.01 74.29"/><polygon points="2.28 95.16 4.56 97.92 2.28 100.69 0 97.92 2.28 95.16"/><polygon points="14 95.16 16.28 97.92 14 100.69 11.72 97.92 14 95.16"/><polygon points="25.72 95.16 28 97.92 25.72 100.69 23.43 97.92 25.72 95.16"/><polygon points="37.43 95.16 39.72 97.92 37.43 100.69 35.15 97.92 37.43 95.16"/><polygon points="49.15 95.16 51.43 97.92 49.15 100.69 46.87 97.92 49.15 95.16"/><polygon points="60.87 95.16 63.15 97.92 60.87 100.69 58.59 97.92 60.87 95.16"/><polygon points="72.59 95.16 74.87 97.92 72.59 100.69 70.31 97.92 72.59 95.16"/><polygon points="84.31 95.16 86.59 97.92 84.31 100.69 82.02 97.92 84.31 95.16"/><polygon points="96.02 95.16 98.3 97.92 96.02 100.69 93.74 97.92 96.02 95.16"/><polygon points="107.74 95.16 110.02 97.92 107.74 100.69 105.46 97.92 107.74 95.16"/><polygon points="119.46 95.16 121.74 97.92 119.46 100.69 117.18 97.92 119.46 95.16"/><polygon points="131.18 95.16 133.46 97.92 131.18 100.69 128.9 97.92 131.18 95.16"/><polygon points="142.89 95.16 145.17 97.92 142.89 100.69 140.61 97.92 142.89 95.16"/><polygon points="8.16 87.88 10.44 90.64 8.16 93.41 5.88 90.64 8.16 87.88"/><polygon points="19.88 87.88 22.16 90.64 19.88 93.41 17.59 90.64 19.88 87.88"/><polygon points="31.59 87.88 33.87 90.64 31.59 93.41 29.31 90.64 31.59 87.88"/><polygon points="43.3 87.88 45.58 90.64 43.3 93.41 41.02 90.64 43.3 87.88"/><polygon points="55.02 87.88 57.3 90.64 55.02 93.41 52.73 90.64 55.02 87.88"/><polygon points="66.73 87.88 69.01 90.64 66.73 93.41 64.45 90.64 66.73 87.88"/><polygon points="78.44 87.88 80.72 90.64 78.44 93.41 76.16 90.64 78.44 87.88"/><polygon points="90.16 87.88 92.44 90.64 90.16 93.41 87.88 90.64 90.16 87.88"/><polygon points="101.87 87.88 104.15 90.64 101.87 93.41 99.59 90.64 101.87 87.88"/><polygon points="113.58 87.88 115.86 90.64 113.58 93.41 111.3 90.64 113.58 87.88"/><polygon points="125.3 87.88 127.58 90.64 125.3 93.41 123.02 90.64 125.3 87.88"/><polygon points="137.01 87.88 139.29 90.64 137.01 93.41 134.73 90.64 137.01 87.88"/><polygon points="2.28 108.76 4.56 111.52 2.28 114.28 0 111.52 2.28 108.76"/><polygon points="14 108.76 16.28 111.52 14 114.28 11.72 111.52 14 108.76"/><polygon points="25.72 108.76 28 111.52 25.72 114.28 23.43 111.52 25.72 108.76"/><polygon points="37.43 108.76 39.72 111.52 37.43 114.28 35.15 111.52 37.43 108.76"/><polygon points="49.15 108.76 51.43 111.52 49.15 114.28 46.87 111.52 49.15 108.76"/><polygon points="60.87 108.76 63.15 111.52 60.87 114.28 58.59 111.52 60.87 108.76"/><polygon points="72.59 108.76 74.87 111.52 72.59 114.28 70.31 111.52 72.59 108.76"/><polygon points="84.31 108.76 86.59 111.52 84.31 114.28 82.02 111.52 84.31 108.76"/><polygon points="96.02 108.76 98.3 111.52 96.02 114.28 93.74 111.52 96.02 108.76"/><polygon points="107.74 108.76 110.02 111.52 107.74 114.28 105.46 111.52 107.74 108.76"/><polygon points="119.46 108.76 121.74 111.52 119.46 114.28 117.18 111.52 119.46 108.76"/><polygon points="131.18 108.76 133.46 111.52 131.18 114.28 128.9 111.52 131.18 108.76"/><polygon points="142.89 108.76 145.17 111.52 142.89 114.28 140.61 111.52 142.89 108.76"/><polygon points="8.16 101.48 10.44 104.24 8.16 107 5.88 104.24 8.16 101.48"/><polygon points="19.88 101.48 22.16 104.24 19.88 107 17.59 104.24 19.88 101.48"/><polygon points="31.59 101.48 33.87 104.24 31.59 107 29.31 104.24 31.59 101.48"/><polygon points="43.3 101.48 45.58 104.24 43.3 107 41.02 104.24 43.3 101.48"/><polygon points="55.02 101.48 57.3 104.24 55.02 107 52.73 104.24 55.02 101.48"/><polygon points="66.73 101.48 69.01 104.24 66.73 107 64.45 104.24 66.73 101.48"/><polygon points="78.44 101.48 80.72 104.24 78.44 107 76.16 104.24 78.44 101.48"/><polygon points="90.16 101.48 92.44 104.24 90.16 107 87.88 104.24 90.16 101.48"/><polygon points="101.87 101.48 104.15 104.24 101.87 107 99.59 104.24 101.87 101.48"/><polygon points="113.58 101.48 115.86 104.24 113.58 107 111.3 104.24 113.58 101.48"/><polygon points="125.3 101.48 127.58 104.24 125.3 107 123.02 104.24 125.3 101.48"/><polygon points="137.01 101.48 139.29 104.24 137.01 107 134.73 104.24 137.01 101.48"/><polygon points="2.28 122.35 4.56 125.11 2.28 127.88 0 125.11 2.28 122.35"/><polygon points="14 122.35 16.28 125.11 14 127.88 11.72 125.11 14 122.35"/><polygon points="25.72 122.35 28 125.11 25.72 127.88 23.43 125.11 25.72 122.35"/><polygon points="37.43 122.35 39.72 125.11 37.43 127.88 35.15 125.11 37.43 122.35"/><polygon points="49.15 122.35 51.43 125.11 49.15 127.88 46.87 125.11 49.15 122.35"/><polygon points="60.87 122.35 63.15 125.11 60.87 127.88 58.59 125.11 60.87 122.35"/><polygon points="72.59 122.35 74.87 125.11 72.59 127.88 70.31 125.11 72.59 122.35"/><polygon points="84.31 122.35 86.59 125.11 84.31 127.88 82.02 125.11 84.31 122.35"/><polygon points="96.02 122.35 98.3 125.11 96.02 127.88 93.74 125.11 96.02 122.35"/><polygon points="107.74 122.35 110.02 125.11 107.74 127.88 105.46 125.11 107.74 122.35"/><polygon points="119.46 122.35 121.74 125.11 119.46 127.88 117.18 125.11 119.46 122.35"/><polygon points="131.18 122.35 133.46 125.11 131.18 127.88 128.9 125.11 131.18 122.35"/><polygon points="142.89 122.35 145.17 125.11 142.89 127.88 140.61 125.11 142.89 122.35"/><polygon points="8.16 115.07 10.44 117.83 8.16 120.59 5.88 117.83 8.16 115.07"/><polygon points="19.88 115.07 22.16 117.83 19.88 120.59 17.59 117.83 19.88 115.07"/><polygon points="31.59 115.07 33.87 117.83 31.59 120.59 29.31 117.83 31.59 115.07"/><polygon points="43.3 115.07 45.58 117.83 43.3 120.59 41.02 117.83 43.3 115.07"/><polygon points="55.02 115.07 57.3 117.83 55.02 120.59 52.73 117.83 55.02 115.07"/><polygon points="66.73 115.07 69.01 117.83 66.73 120.59 64.45 117.83 66.73 115.07"/><polygon points="78.44 115.07 80.72 117.83 78.44 120.59 76.16 117.83 78.44 115.07"/><polygon points="90.16 115.07 92.44 117.83 90.16 120.59 87.88 117.83 90.16 115.07"/><polygon points="101.87 115.07 104.15 117.83 101.87 120.59 99.59 117.83 101.87 115.07"/><polygon points="113.58 115.07 115.86 117.83 113.58 120.59 111.3 117.83 113.58 115.07"/><polygon points="125.3 115.07 127.58 117.83 125.3 120.59 123.02 117.83 125.3 115.07"/><polygon points="137.01 115.07 139.29 117.83 137.01 120.59 134.73 117.83 137.01 115.07"/><polygon points="2.28 135.95 4.56 138.71 2.28 141.47 0 138.71 2.28 135.95"/><polygon points="14 135.95 16.28 138.71 14 141.47 11.72 138.71 14 135.95"/><polygon points="25.72 135.95 28 138.71 25.72 141.47 23.43 138.71 25.72 135.95"/><polygon points="37.43 135.95 39.72 138.71 37.43 141.47 35.15 138.71 37.43 135.95"/><polygon points="49.15 135.95 51.43 138.71 49.15 141.47 46.87 138.71 49.15 135.95"/><polygon points="60.87 135.95 63.15 138.71 60.87 141.47 58.59 138.71 60.87 135.95"/><polygon points="72.59 135.95 74.87 138.71 72.59 141.47 70.31 138.71 72.59 135.95"/><polygon points="84.31 135.95 86.59 138.71 84.31 141.47 82.02 138.71 84.31 135.95"/><polygon points="96.02 135.95 98.3 138.71 96.02 141.47 93.74 138.71 96.02 135.95"/><polygon points="107.74 135.95 110.02 138.71 107.74 141.47 105.46 138.71 107.74 135.95"/><polygon points="119.46 135.95 121.74 138.71 119.46 141.47 117.18 138.71 119.46 135.95"/><polygon points="131.18 135.95 133.46 138.71 131.18 141.47 128.9 138.71 131.18 135.95"/><polygon points="142.89 135.95 145.17 138.71 142.89 141.47 140.61 138.71 142.89 135.95"/><polygon points="8.16 128.67 10.44 131.43 8.16 134.19 5.88 131.43 8.16 128.67"/><polygon points="19.88 128.67 22.16 131.43 19.88 134.19 17.59 131.43 19.88 128.67"/><polygon points="31.59 128.67 33.87 131.43 31.59 134.19 29.31 131.43 31.59 128.67"/><polygon points="43.3 128.67 45.58 131.43 43.3 134.19 41.02 131.43 43.3 128.67"/><polygon points="55.02 128.67 57.3 131.43 55.02 134.19 52.73 131.43 55.02 128.67"/><polygon points="66.73 128.67 69.01 131.43 66.73 134.19 64.45 131.43 66.73 128.67"/><polygon points="78.44 128.67 80.72 131.43 78.44 134.19 76.16 131.43 78.44 128.67"/><polygon points="90.16 128.67 92.44 131.43 90.16 134.19 87.88 131.43 90.16 128.67"/><polygon points="101.87 128.67 104.15 131.43 101.87 134.19 99.59 131.43 101.87 128.67"/><polygon points="113.58 128.67 115.86 131.43 113.58 134.19 111.3 131.43 113.58 128.67"/><polygon points="125.3 128.67 127.58 131.43 125.3 134.19 123.02 131.43 125.3 128.67"/><polygon points="137.01 128.67 139.29 131.43 137.01 134.19 134.73 131.43 137.01 128.67"/><polygon points="2.28 149.54 4.56 152.3 2.28 155.06 0 152.3 2.28 149.54"/><polygon points="14 149.54 16.28 152.3 14 155.06 11.72 152.3 14 149.54"/><polygon points="25.72 149.54 28 152.3 25.72 155.06 23.43 152.3 25.72 149.54"/><polygon points="37.43 149.54 39.72 152.3 37.43 155.06 35.15 152.3 37.43 149.54"/><polygon points="49.15 149.54 51.43 152.3 49.15 155.06 46.87 152.3 49.15 149.54"/><polygon points="60.87 149.54 63.15 152.3 60.87 155.06 58.59 152.3 60.87 149.54"/><polygon points="72.59 149.54 74.87 152.3 72.59 155.06 70.31 152.3 72.59 149.54"/><polygon points="84.31 149.54 86.59 152.3 84.31 155.06 82.02 152.3 84.31 149.54"/><polygon points="96.02 149.54 98.3 152.3 96.02 155.06 93.74 152.3 96.02 149.54"/><polygon points="107.74 149.54 110.02 152.3 107.74 155.06 105.46 152.3 107.74 149.54"/><polygon points="119.46 149.54 121.74 152.3 119.46 155.06 117.18 152.3 119.46 149.54"/><polygon points="131.18 149.54 133.46 152.3 131.18 155.06 128.9 152.3 131.18 149.54"/><polygon points="142.89 149.54 145.17 152.3 142.89 155.06 140.61 152.3 142.89 149.54"/><polygon points="8.16 142.26 10.44 145.02 8.16 147.78 5.88 145.02 8.16 142.26"/><polygon points="19.88 142.26 22.16 145.02 19.88 147.78 17.59 145.02 19.88 142.26"/><polygon points="31.59 142.26 33.87 145.02 31.59 147.78 29.31 145.02 31.59 142.26"/><polygon points="43.3 142.26 45.58 145.02 43.3 147.78 41.02 145.02 43.3 142.26"/><polygon points="55.02 142.26 57.3 145.02 55.02 147.78 52.73 145.02 55.02 142.26"/><polygon points="66.73 142.26 69.01 145.02 66.73 147.78 64.45 145.02 66.73 142.26"/><polygon points="78.44 142.26 80.72 145.02 78.44 147.78 76.16 145.02 78.44 142.26"/><polygon points="90.16 142.26 92.44 145.02 90.16 147.78 87.88 145.02 90.16 142.26"/><polygon points="101.87 142.26 104.15 145.02 101.87 147.78 99.59 145.02 101.87 142.26"/><polygon points="113.58 142.26 115.86 145.02 113.58 147.78 111.3 145.02 113.58 142.26"/><polygon points="125.3 142.26 127.58 145.02 125.3 147.78 123.02 145.02 125.3 142.26"/><polygon points="137.01 142.26 139.29 145.02 137.01 147.78 134.73 145.02 137.01 142.26"/><polygon points="2.28 163.14 4.56 165.9 2.28 168.66 0 165.9 2.28 163.14"/><polygon points="14 163.14 16.28 165.9 14 168.66 11.72 165.9 14 163.14"/><polygon points="25.72 163.14 28 165.9 25.72 168.66 23.43 165.9 25.72 163.14"/><polygon points="37.43 163.14 39.72 165.9 37.43 168.66 35.15 165.9 37.43 163.14"/><polygon points="49.15 163.14 51.43 165.9 49.15 168.66 46.87 165.9 49.15 163.14"/><polygon points="60.87 163.14 63.15 165.9 60.87 168.66 58.59 165.9 60.87 163.14"/><polygon points="72.59 163.14 74.87 165.9 72.59 168.66 70.31 165.9 72.59 163.14"/><polygon points="84.31 163.14 86.59 165.9 84.31 168.66 82.02 165.9 84.31 163.14"/><polygon points="96.02 163.14 98.3 165.9 96.02 168.66 93.74 165.9 96.02 163.14"/><polygon points="107.74 163.14 110.02 165.9 107.74 168.66 105.46 165.9 107.74 163.14"/><polygon points="119.46 163.14 121.74 165.9 119.46 168.66 117.18 165.9 119.46 163.14"/><polygon points="131.18 163.14 133.46 165.9 131.18 168.66 128.9 165.9 131.18 163.14"/><polygon points="142.89 163.14 145.17 165.9 142.89 168.66 140.61 165.9 142.89 163.14"/><polygon points="8.16 155.86 10.44 158.62 8.16 161.38 5.88 158.62 8.16 155.86"/><polygon points="19.88 155.86 22.16 158.62 19.88 161.38 17.59 158.62 19.88 155.86"/><polygon points="31.59 155.86 33.87 158.62 31.59 161.38 29.31 158.62 31.59 155.86"/><polygon points="43.3 155.86 45.58 158.62 43.3 161.38 41.02 158.62 43.3 155.86"/><polygon points="55.02 155.86 57.3 158.62 55.02 161.38 52.73 158.62 55.02 155.86"/><polygon points="66.73 155.86 69.01 158.62 66.73 161.38 64.45 158.62 66.73 155.86"/><polygon points="78.44 155.86 80.72 158.62 78.44 161.38 76.16 158.62 78.44 155.86"/><polygon points="90.16 155.86 92.44 158.62 90.16 161.38 87.88 158.62 90.16 155.86"/><polygon points="101.87 155.86 104.15 158.62 101.87 161.38 99.59 158.62 101.87 155.86"/><polygon points="113.58 155.86 115.86 158.62 113.58 161.38 111.3 158.62 113.58 155.86"/><polygon points="125.3 155.86 127.58 158.62 125.3 161.38 123.02 158.62 125.3 155.86"/><polygon points="137.01 155.86 139.29 158.62 137.01 161.38 134.73 158.62 137.01 155.86"/><polygon points="2.28 176.73 4.56 179.49 2.28 182.25 0 179.49 2.28 176.73"/><polygon points="14 176.73 16.28 179.49 14 182.25 11.72 179.49 14 176.73"/><polygon points="25.72 176.73 28 179.49 25.72 182.25 23.43 179.49 25.72 176.73"/><polygon points="37.43 176.73 39.72 179.49 37.43 182.25 35.15 179.49 37.43 176.73"/><polygon points="49.15 176.73 51.43 179.49 49.15 182.25 46.87 179.49 49.15 176.73"/><polygon points="60.87 176.73 63.15 179.49 60.87 182.25 58.59 179.49 60.87 176.73"/><polygon points="72.59 176.73 74.87 179.49 72.59 182.25 70.31 179.49 72.59 176.73"/><polygon points="84.31 176.73 86.59 179.49 84.31 182.25 82.02 179.49 84.31 176.73"/><polygon points="96.02 176.73 98.3 179.49 96.02 182.25 93.74 179.49 96.02 176.73"/><polygon points="107.74 176.73 110.02 179.49 107.74 182.25 105.46 179.49 107.74 176.73"/><polygon points="119.46 176.73 121.74 179.49 119.46 182.25 117.18 179.49 119.46 176.73"/><polygon points="131.18 176.73 133.46 179.49 131.18 182.25 128.9 179.49 131.18 176.73"/><polygon points="142.89 176.73 145.17 179.49 142.89 182.25 140.61 179.49 142.89 176.73"/><polygon points="8.16 169.45 10.44 172.21 8.16 174.97 5.88 172.21 8.16 169.45"/><polygon points="19.88 169.45 22.16 172.21 19.88 174.97 17.59 172.21 19.88 169.45"/><polygon points="31.59 169.45 33.87 172.21 31.59 174.97 29.31 172.21 31.59 169.45"/><polygon points="43.3 169.45 45.58 172.21 43.3 174.97 41.02 172.21 43.3 169.45"/><polygon points="55.02 169.45 57.3 172.21 55.02 174.97 52.73 172.21 55.02 169.45"/><polygon points="66.73 169.45 69.01 172.21 66.73 174.97 64.45 172.21 66.73 169.45"/><polygon points="78.44 169.45 80.72 172.21 78.44 174.97 76.16 172.21 78.44 169.45"/><polygon points="90.16 169.45 92.44 172.21 90.16 174.97 87.88 172.21 90.16 169.45"/><polygon points="101.87 169.45 104.15 172.21 101.87 174.97 99.59 172.21 101.87 169.45"/><polygon points="113.58 169.45 115.86 172.21 113.58 174.97 111.3 172.21 113.58 169.45"/><polygon points="125.3 169.45 127.58 172.21 125.3 174.97 123.02 172.21 125.3 169.45"/><polygon points="137.01 169.45 139.29 172.21 137.01 174.97 134.73 172.21 137.01 169.45"/><polygon points="2.28 190.33 4.56 193.09 2.28 195.85 0 193.09 2.28 190.33"/><polygon points="14 190.33 16.28 193.09 14 195.85 11.72 193.09 14 190.33"/><polygon points="25.72 190.33 28 193.09 25.72 195.85 23.43 193.09 25.72 190.33"/><polygon points="37.43 190.33 39.72 193.09 37.43 195.85 35.15 193.09 37.43 190.33"/><polygon points="49.15 190.33 51.43 193.09 49.15 195.85 46.87 193.09 49.15 190.33"/><polygon points="60.87 190.33 63.15 193.09 60.87 195.85 58.59 193.09 60.87 190.33"/><polygon points="72.59 190.33 74.87 193.09 72.59 195.85 70.31 193.09 72.59 190.33"/><polygon points="84.31 190.33 86.59 193.09 84.31 195.85 82.02 193.09 84.31 190.33"/><polygon points="96.02 190.33 98.3 193.09 96.02 195.85 93.74 193.09 96.02 190.33"/><polygon points="107.74 190.33 110.02 193.09 107.74 195.85 105.46 193.09 107.74 190.33"/><polygon points="119.46 190.33 121.74 193.09 119.46 195.85 117.18 193.09 119.46 190.33"/><polygon points="131.18 190.33 133.46 193.09 131.18 195.85 128.9 193.09 131.18 190.33"/><polygon points="142.89 190.33 145.17 193.09 142.89 195.85 140.61 193.09 142.89 190.33"/><polygon points="8.16 183.05 10.44 185.81 8.16 188.57 5.88 185.81 8.16 183.05"/><polygon points="19.88 183.05 22.16 185.81 19.88 188.57 17.59 185.81 19.88 183.05"/><polygon points="31.59 183.05 33.87 185.81 31.59 188.57 29.31 185.81 31.59 183.05"/><polygon points="43.3 183.05 45.58 185.81 43.3 188.57 41.02 185.81 43.3 183.05"/><polygon points="55.02 183.05 57.3 185.81 55.02 188.57 52.73 185.81 55.02 183.05"/><polygon points="66.73 183.05 69.01 185.81 66.73 188.57 64.45 185.81 66.73 183.05"/><polygon points="78.44 183.05 80.72 185.81 78.44 188.57 76.16 185.81 78.44 183.05"/><polygon points="90.16 183.05 92.44 185.81 90.16 188.57 87.88 185.81 90.16 183.05"/><polygon points="101.87 183.05 104.15 185.81 101.87 188.57 99.59 185.81 101.87 183.05"/><polygon points="113.58 183.05 115.86 185.81 113.58 188.57 111.3 185.81 113.58 183.05"/><polygon points="125.3 183.05 127.58 185.81 125.3 188.57 123.02 185.81 125.3 183.05"/><polygon points="137.01 183.05 139.29 185.81 137.01 188.57 134.73 185.81 137.01 183.05"/><polygon points="2.28 203.92 4.56 206.68 2.28 209.44 0 206.68 2.28 203.92"/><polygon points="14 203.92 16.28 206.68 14 209.44 11.72 206.68 14 203.92"/><polygon points="25.72 203.92 28 206.68 25.72 209.44 23.43 206.68 25.72 203.92"/><polygon points="37.43 203.92 39.72 206.68 37.43 209.44 35.15 206.68 37.43 203.92"/><polygon points="49.15 203.92 51.43 206.68 49.15 209.44 46.87 206.68 49.15 203.92"/><polygon points="60.87 203.92 63.15 206.68 60.87 209.44 58.59 206.68 60.87 203.92"/><polygon points="72.59 203.92 74.87 206.68 72.59 209.44 70.31 206.68 72.59 203.92"/><polygon points="84.31 203.92 86.59 206.68 84.31 209.44 82.02 206.68 84.31 203.92"/><polygon points="96.02 203.92 98.3 206.68 96.02 209.44 93.74 206.68 96.02 203.92"/><polygon points="107.74 203.92 110.02 206.68 107.74 209.44 105.46 206.68 107.74 203.92"/><polygon points="119.46 203.92 121.74 206.68 119.46 209.44 117.18 206.68 119.46 203.92"/><polygon points="131.18 203.92 133.46 206.68 131.18 209.44 128.9 206.68 131.18 203.92"/><polygon points="142.89 203.92 145.17 206.68 142.89 209.44 140.61 206.68 142.89 203.92"/><polygon points="8.16 196.64 10.44 199.4 8.16 202.16 5.88 199.4 8.16 196.64"/><polygon points="19.88 196.64 22.16 199.4 19.88 202.16 17.59 199.4 19.88 196.64"/><polygon points="31.59 196.64 33.87 199.4 31.59 202.16 29.31 199.4 31.59 196.64"/><polygon points="43.3 196.64 45.58 199.4 43.3 202.16 41.02 199.4 43.3 196.64"/><polygon points="55.02 196.64 57.3 199.4 55.02 202.16 52.73 199.4 55.02 196.64"/><polygon points="66.73 196.64 69.01 199.4 66.73 202.16 64.45 199.4 66.73 196.64"/><polygon points="78.44 196.64 80.72 199.4 78.44 202.16 76.16 199.4 78.44 196.64"/><polygon points="90.16 196.64 92.44 199.4 90.16 202.16 87.88 199.4 90.16 196.64"/><polygon points="101.87 196.64 104.15 199.4 101.87 202.16 99.59 199.4 101.87 196.64"/><polygon points="113.58 196.64 115.86 199.4 113.58 202.16 111.3 199.4 113.58 196.64"/><polygon points="125.3 196.64 127.58 199.4 125.3 202.16 123.02 199.4 125.3 196.64"/><polygon points="137.01 196.64 139.29 199.4 137.01 202.16 134.73 199.4 137.01 196.64"/><polygon points="2.28 217.52 4.56 220.28 2.28 223.04 0 220.28 2.28 217.52"/><polygon points="14 217.52 16.28 220.28 14 223.04 11.72 220.28 14 217.52"/><polygon points="25.72 217.52 28 220.28 25.72 223.04 23.43 220.28 25.72 217.52"/><polygon points="37.43 217.52 39.72 220.28 37.43 223.04 35.15 220.28 37.43 217.52"/><polygon points="49.15 217.52 51.43 220.28 49.15 223.04 46.87 220.28 49.15 217.52"/><polygon points="60.87 217.52 63.15 220.28 60.87 223.04 58.59 220.28 60.87 217.52"/><polygon points="72.59 217.52 74.87 220.28 72.59 223.04 70.31 220.28 72.59 217.52"/><polygon points="84.31 217.52 86.59 220.28 84.31 223.04 82.02 220.28 84.31 217.52"/><polygon points="96.02 217.52 98.3 220.28 96.02 223.04 93.74 220.28 96.02 217.52"/><polygon points="107.74 217.52 110.02 220.28 107.74 223.04 105.46 220.28 107.74 217.52"/><polygon points="119.46 217.52 121.74 220.28 119.46 223.04 117.18 220.28 119.46 217.52"/><polygon points="131.18 217.52 133.46 220.28 131.18 223.04 128.9 220.28 131.18 217.52"/><polygon points="142.89 217.52 145.17 220.28 142.89 223.04 140.61 220.28 142.89 217.52"/><polygon points="8.16 210.24 10.44 213 8.16 215.76 5.88 213 8.16 210.24"/><polygon points="19.88 210.24 22.16 213 19.88 215.76 17.59 213 19.88 210.24"/><polygon points="31.59 210.24 33.87 213 31.59 215.76 29.31 213 31.59 210.24"/><polygon points="43.3 210.24 45.58 213 43.3 215.76 41.02 213 43.3 210.24"/><polygon points="55.02 210.24 57.3 213 55.02 215.76 52.73 213 55.02 210.24"/><polygon points="66.73 210.24 69.01 213 66.73 215.76 64.45 213 66.73 210.24"/><polygon points="78.44 210.24 80.72 213 78.44 215.76 76.16 213 78.44 210.24"/><polygon points="90.16 210.24 92.44 213 90.16 215.76 87.88 213 90.16 210.24"/><polygon points="101.87 210.24 104.15 213 101.87 215.76 99.59 213 101.87 210.24"/><polygon points="113.58 210.24 115.86 213 113.58 215.76 111.3 213 113.58 210.24"/><polygon points="125.3 210.24 127.58 213 125.3 215.76 123.02 213 125.3 210.24"/><polygon points="137.01 210.24 139.29 213 137.01 215.76 134.73 213 137.01 210.24"/></g></g></svg>