<?xml version="1.0" encoding="UTF-8"?>
<svg width="260px" height="260px" viewBox="0 0 260 260" version="1.1" xmlns="http://www.w3.org/2000/svg" xmlns:xlink="http://www.w3.org/1999/xlink">
    <!-- Generator: Sketch 56.3 (81716) - https://sketch.com -->
    <title>favicon</title>
    <desc>Created with Sketch.</desc>
    <g id="favicon" stroke="none" stroke-width="1" fill="none" fill-rule="evenodd">
        <path d="M89.87948,57.2372622 L89.87948,49.0603114 C89.87948,37.9813073 98.863335,29 109.945482,29 L176.832154,29 C187.914301,29 196.898156,37.9813073 196.898156,49.0603114 L196.898156,142.675098 C196.898156,146.368099 193.903538,149.361868 190.209489,149.361868 C186.51544,149.361868 183.520822,146.368099 183.520822,142.675098 L183.520822,49.0603114 C183.520822,45.36731 180.526203,42.3735409 176.832154,42.3735409 L109.945482,42.3735409 C106.251433,42.3735409 103.256815,45.36731 103.256815,49.0603114 L103.256815,61.7608131 C103.259247,61.8646392 103.259235,61.9682637 103.256815,62.0716097 L103.256815,156.048639 C103.256815,159.74164 106.251433,162.735409 109.945482,162.735409 L116.634149,162.735409 C120.328198,162.735409 123.322816,165.729178 123.322816,169.42218 C123.322816,173.115181 120.328198,176.10895 116.634149,176.10895 L109.945482,176.10895 C98.863335,176.10895 89.87948,167.127643 89.87948,156.048639 L89.87948,71.4718379 L40.7927214,89.3624033 C39.1224557,89.9658395 37.7608186,91.2085835 37.0079942,92.8166624 C36.2551697,94.4247412 36.1729716,96.2661168 36.7774831,97.929244 L73.4106782,198.434707 C74.0142857,200.104499 75.2573822,201.46575 76.8659172,202.218361 C78.4744522,202.970972 80.3163501,203.053146 81.9800814,202.448758 L107.655645,193.096195 C111.126478,191.831912 114.965338,193.619876 116.22998,197.089724 C117.494622,200.559573 115.706151,204.397344 112.235318,205.661627 L86.5542858,215.01618 C81.5466871,216.835312 76.0209933,216.588788 71.1953884,214.330955 C66.3697834,212.073122 62.6404938,207.989369 60.8357248,202.996669 L24.2065449,102.502283 C22.3868964,97.4961049 22.6334908,91.9719781 24.8919642,87.1477416 C27.1504377,82.3235051 31.2353488,78.595273 36.2284352,76.7913911 L89.87948,57.2372622 Z M143.388818,129.301557 C128.612622,129.301557 116.634149,117.32648 116.634149,102.554475 C116.634149,87.7824697 128.612622,75.8073932 143.388818,75.8073932 C158.165014,75.8073932 170.143487,87.7824697 170.143487,102.554475 C170.143487,117.32648 158.165014,129.301557 143.388818,129.301557 Z M143.388818,115.928016 C150.776916,115.928016 156.766153,109.940478 156.766153,102.554475 C156.766153,95.1684724 150.776916,89.1809341 143.388818,89.1809341 C136.00072,89.1809341 130.011484,95.1684724 130.011484,102.554475 C130.011484,109.940478 136.00072,115.928016 143.388818,115.928016 Z M189.338283,232.829924 L189.260229,233.146093 C187.709023,238.830728 182.618987,242.830577 176.727241,242.99476 C170.835494,243.158944 165.530484,239.44877 163.747405,234.092055 L135.261161,158.18525 C133.654616,153.377691 134.904823,148.075311 138.489982,144.491168 C142.075141,140.907026 147.379025,139.657174 152.417196,141.344489 L227.856758,169.632229 C233.447765,171.497256 237.158991,176.800761 236.994761,182.690837 C236.830531,188.580913 232.829547,193.669505 226.832875,195.29701 L196.132348,202.11218 L189.338283,232.829924 Z M183.990708,195.064386 C184.552034,192.526485 186.533593,190.543717 189.071712,189.980283 L223.622621,182.3182 L223.391061,182.236203 L147.949186,153.94769 L147.867483,153.717295 L176.349387,229.612792 L183.990708,195.064386 Z" id="Combined-Shape" fill="#363636" fill-rule="nonzero"></path>
    </g>
</svg>