<svg height="223.04" width="145.17" xmlns="http://www.w3.org/2000/svg"><path d="m2.28 0 2.28 2.76-2.28 2.76-2.28-2.76zm11.72 0 2.28 2.76-2.28 2.76-2.28-2.76zm11.72 0 2.28 2.76-2.28 2.76-2.29-2.76zm11.71 0 2.29 2.76-2.29 2.76-2.28-2.76zm11.72 0 2.28 2.76-2.28 2.76-2.28-2.76zm11.72 0 2.28 2.76-2.28 2.76-2.28-2.76zm11.72 0 2.28 2.76-2.28 2.76-2.28-2.76zm11.72 0 2.28 2.76-2.28 2.76-2.29-2.76zm11.71 0 2.28 2.76-2.28 2.76-2.28-2.76zm11.72 0 2.28 2.76-2.28 2.76-2.28-2.76zm11.72 0 2.28 2.76-2.28 2.76-2.28-2.76zm11.72 0 2.28 2.76-2.28 2.76-2.28-2.76zm11.71 0 2.28 2.76-2.28 2.76-2.28-2.76zm-140.61 13.6 2.28 2.76-2.28 2.76-2.28-2.76zm11.72 0 2.28 2.76-2.28 2.76-2.28-2.76zm11.72 0 2.28 2.76-2.28 2.76-2.29-2.76zm11.71 0 2.29 2.76-2.29 2.76-2.28-2.76zm11.72 0 2.28 2.76-2.28 2.76-2.28-2.76zm11.72 0 2.28 2.76-2.28 2.76-2.28-2.76zm11.72 0 2.28 2.76-2.28 2.76-2.28-2.76zm11.72 0 2.28 2.76-2.28 2.76-2.29-2.76zm11.71 0 2.28 2.76-2.28 2.76-2.28-2.76zm11.72 0 2.28 2.76-2.28 2.76-2.28-2.76zm11.72 0 2.28 2.76-2.28 2.76-2.28-2.76zm11.72 0 2.28 2.76-2.28 2.76-2.28-2.76zm11.71 0 2.28 2.76-2.28 2.76-2.28-2.76zm-134.73-7.29 2.28 2.76-2.28 2.77-2.28-2.77zm11.72 0 2.28 2.76-2.28 2.77-2.29-2.77zm11.71 0 2.28 2.76-2.28 2.77-2.28-2.77zm11.71 0 2.28 2.76-2.28 2.77-2.28-2.77zm11.72 0 2.28 2.76-2.28 2.77-2.29-2.77zm11.71 0 2.28 2.76-2.28 2.77-2.28-2.77zm11.71 0 2.28 2.76-2.28 2.77-2.28-2.77zm11.72 0 2.28 2.76-2.28 2.77-2.28-2.77zm11.71 0 2.28 2.76-2.28 2.77-2.28-2.77zm11.71 0 2.28 2.76-2.28 2.77-2.28-2.77zm11.72 0 2.28 2.76-2.28 2.77-2.28-2.77zm11.71 0 2.28 2.76-2.28 2.77-2.28-2.77zm-134.73 20.88 2.28 2.76-2.28 2.76-2.28-2.76zm11.72 0 2.28 2.76-2.28 2.76-2.28-2.76zm11.72 0 2.28 2.76-2.28 2.76-2.29-2.76zm11.71 0 2.29 2.76-2.29 2.76-2.28-2.76zm11.72 0 2.28 2.76-2.28 2.76-2.28-2.76zm11.72 0 2.28 2.76-2.28 2.76-2.28-2.76zm11.72 0 2.28 2.76-2.28 2.76-2.28-2.76zm11.72 0 2.28 2.76-2.28 2.76-2.29-2.76zm11.71 0 2.28 2.76-2.28 2.76-2.28-2.76zm11.72 0 2.28 2.76-2.28 2.76-2.28-2.76zm11.72 0 2.28 2.76-2.28 2.76-2.28-2.76zm11.72 0 2.28 2.76-2.28 2.76-2.28-2.76zm11.71 0 2.28 2.76-2.28 2.76-2.28-2.76zm-134.73-7.28 2.28 2.76-2.28 2.76-2.28-2.76zm11.72 0 2.28 2.76-2.28 2.76-2.29-2.76zm11.71 0 2.28 2.76-2.28 2.76-2.28-2.76zm11.71 0 2.28 2.76-2.28 2.76-2.28-2.76zm11.72 0 2.28 2.76-2.28 2.76-2.29-2.76zm11.71 0 2.28 2.76-2.28 2.76-2.28-2.76zm11.71 0 2.28 2.76-2.28 2.76-2.28-2.76zm11.72 0 2.28 2.76-2.28 2.76-2.28-2.76zm11.71 0 2.28 2.76-2.28 2.76-2.28-2.76zm11.71 0 2.28 2.76-2.28 2.76-2.28-2.76zm11.72 0 2.28 2.76-2.28 2.76-2.28-2.76zm11.71 0 2.28 2.76-2.28 2.76-2.28-2.76zm-134.73 20.87 2.28 2.77-2.28 2.76-2.28-2.76zm11.72 0 2.28 2.77-2.28 2.76-2.28-2.76zm11.72 0 2.28 2.77-2.28 2.76-2.29-2.76zm11.71 0 2.29 2.77-2.29 2.76-2.28-2.76zm11.72 0 2.28 2.77-2.28 2.76-2.28-2.76zm11.72 0 2.28 2.77-2.28 2.76-2.28-2.76zm11.72 0 2.28 2.77-2.28 2.76-2.28-2.76zm11.72 0 2.28 2.77-2.28 2.76-2.29-2.76zm11.71 0 2.28 2.77-2.28 2.76-2.28-2.76zm11.72 0 2.28 2.77-2.28 2.76-2.28-2.76zm11.72 0 2.28 2.77-2.28 2.76-2.28-2.76zm11.72 0 2.28 2.77-2.28 2.76-2.28-2.76zm11.71 0 2.28 2.77-2.28 2.76-2.28-2.76zm-134.73-7.28 2.28 2.76-2.28 2.77-2.28-2.77zm11.72 0 2.28 2.76-2.28 2.77-2.29-2.77zm11.71 0 2.28 2.76-2.28 2.77-2.28-2.77zm11.71 0 2.28 2.76-2.28 2.77-2.28-2.77zm11.72 0 2.28 2.76-2.28 2.77-2.29-2.77zm11.71 0 2.28 2.76-2.28 2.77-2.28-2.77zm11.71 0 2.28 2.76-2.28 2.77-2.28-2.77zm11.72 0 2.28 2.76-2.28 2.77-2.28-2.77zm11.71 0 2.28 2.76-2.28 2.77-2.28-2.77zm11.71 0 2.28 2.76-2.28 2.77-2.28-2.77zm11.72 0 2.28 2.76-2.28 2.77-2.28-2.77zm11.71 0 2.28 2.76-2.28 2.77-2.28-2.77zm-134.73 20.88 2.28 2.76-2.28 2.76-2.28-2.76zm11.72 0 2.28 2.76-2.28 2.76-2.28-2.76zm11.72 0 2.28 2.76-2.28 2.76-2.29-2.76zm11.71 0 2.29 2.76-2.29 2.76-2.28-2.76zm11.72 0 2.28 2.76-2.28 2.76-2.28-2.76zm11.72 0 2.28 2.76-2.28 2.76-2.28-2.76zm11.72 0 2.28 2.76-2.28 2.76-2.28-2.76zm11.72 0 2.28 2.76-2.28 2.76-2.29-2.76zm11.71 0 2.28 2.76-2.28 2.76-2.28-2.76zm11.72 0 2.28 2.76-2.28 2.76-2.28-2.76zm11.72 0 2.28 2.76-2.28 2.76-2.28-2.76zm11.72 0 2.28 2.76-2.28 2.76-2.28-2.76zm11.71 0 2.28 2.76-2.28 2.76-2.28-2.76zm-134.73-7.28 2.28 2.76-2.28 2.76-2.28-2.76zm11.72 0 2.28 2.76-2.28 2.76-2.29-2.76zm11.71 0 2.28 2.76-2.28 2.76-2.28-2.76zm11.71 0 2.28 2.76-2.28 2.76-2.28-2.76zm11.72 0 2.28 2.76-2.28 2.76-2.29-2.76zm11.71 0 2.28 2.76-2.28 2.76-2.28-2.76zm11.71 0 2.28 2.76-2.28 2.76-2.28-2.76zm11.72 0 2.28 2.76-2.28 2.76-2.28-2.76zm11.71 0 2.28 2.76-2.28 2.76-2.28-2.76zm11.71 0 2.28 2.76-2.28 2.76-2.28-2.76zm11.72 0 2.28 2.76-2.28 2.76-2.28-2.76zm11.71 0 2.28 2.76-2.28 2.76-2.28-2.76zm-134.73 20.87 2.28 2.76-2.28 2.77-2.28-2.77zm11.72 0 2.28 2.76-2.28 2.77-2.28-2.77zm11.72 0 2.28 2.76-2.28 2.77-2.29-2.77zm11.71 0 2.29 2.76-2.29 2.77-2.28-2.77zm11.72 0 2.28 2.76-2.28 2.77-2.28-2.77zm11.72 0 2.28 2.76-2.28 2.77-2.28-2.77zm11.72 0 2.28 2.76-2.28 2.77-2.28-2.77zm11.72 0 2.28 2.76-2.28 2.77-2.29-2.77zm11.71 0 2.28 2.76-2.28 2.77-2.28-2.77zm11.72 0 2.28 2.76-2.28 2.77-2.28-2.77zm11.72 0 2.28 2.76-2.28 2.77-2.28-2.77zm11.72 0 2.28 2.76-2.28 2.77-2.28-2.77zm11.71 0 2.28 2.76-2.28 2.77-2.28-2.77zm-134.73-7.28 2.28 2.76-2.28 2.77-2.28-2.77zm11.72 0 2.28 2.76-2.28 2.77-2.29-2.77zm11.71 0 2.28 2.76-2.28 2.77-2.28-2.77zm11.71 0 2.28 2.76-2.28 2.77-2.28-2.77zm11.72 0 2.28 2.76-2.28 2.77-2.29-2.77zm11.71 0 2.28 2.76-2.28 2.77-2.28-2.77zm11.71 0 2.28 2.76-2.28 2.77-2.28-2.77zm11.72 0 2.28 2.76-2.28 2.77-2.28-2.77zm11.71 0 2.28 2.76-2.28 2.77-2.28-2.77zm11.71 0 2.28 2.76-2.28 2.77-2.28-2.77zm11.72 0 2.28 2.76-2.28 2.77-2.28-2.77zm11.71 0 2.28 2.76-2.28 2.77-2.28-2.77zm-134.73 20.88 2.28 2.76-2.28 2.76-2.28-2.76zm11.72 0 2.28 2.76-2.28 2.76-2.28-2.76zm11.72 0 2.28 2.76-2.28 2.76-2.29-2.76zm11.71 0 2.29 2.76-2.29 2.76-2.28-2.76zm11.72 0 2.28 2.76-2.28 2.76-2.28-2.76zm11.72 0 2.28 2.76-2.28 2.76-2.28-2.76zm11.72 0 2.28 2.76-2.28 2.76-2.28-2.76zm11.72 0 2.28 2.76-2.28 2.76-2.29-2.76zm11.71 0 2.28 2.76-2.28 2.76-2.28-2.76zm11.72 0 2.28 2.76-2.28 2.76-2.28-2.76zm11.72 0 2.28 2.76-2.28 2.76-2.28-2.76zm11.72 0 2.28 2.76-2.28 2.76-2.28-2.76zm11.71 0 2.28 2.76-2.28 2.76-2.28-2.76zm-134.73-7.28 2.28 2.76-2.28 2.76-2.28-2.76zm11.72 0 2.28 2.76-2.28 2.76-2.29-2.76zm11.71 0 2.28 2.76-2.28 2.76-2.28-2.76zm11.71 0 2.28 2.76-2.28 2.76-2.28-2.76zm11.72 0 2.28 2.76-2.28 2.76-2.29-2.76zm11.71 0 2.28 2.76-2.28 2.76-2.28-2.76zm11.71 0 2.28 2.76-2.28 2.76-2.28-2.76zm11.72 0 2.28 2.76-2.28 2.76-2.28-2.76zm11.71 0 2.28 2.76-2.28 2.76-2.28-2.76zm11.71 0 2.28 2.76-2.28 2.76-2.28-2.76zm11.72 0 2.28 2.76-2.28 2.76-2.28-2.76zm11.71 0 2.28 2.76-2.28 2.76-2.28-2.76zm-134.73 20.87 2.28 2.76-2.28 2.77-2.28-2.77zm11.72 0 2.28 2.76-2.28 2.77-2.28-2.77zm11.72 0 2.28 2.76-2.28 2.77-2.29-2.77zm11.71 0 2.29 2.76-2.29 2.77-2.28-2.77zm11.72 0 2.28 2.76-2.28 2.77-2.28-2.77zm11.72 0 2.28 2.76-2.28 2.77-2.28-2.77zm11.72 0 2.28 2.76-2.28 2.77-2.28-2.77zm11.72 0 2.28 2.76-2.28 2.77-2.29-2.77zm11.71 0 2.28 2.76-2.28 2.77-2.28-2.77zm11.72 0 2.28 2.76-2.28 2.77-2.28-2.77zm11.72 0 2.28 2.76-2.28 2.77-2.28-2.77zm11.72 0 2.28 2.76-2.28 2.77-2.28-2.77zm11.71 0 2.28 2.76-2.28 2.77-2.28-2.77zm-134.73-7.28 2.28 2.76-2.28 2.77-2.28-2.77zm11.72 0 2.28 2.76-2.28 2.77-2.29-2.77zm11.71 0 2.28 2.76-2.28 2.77-2.28-2.77zm11.71 0 2.28 2.76-2.28 2.77-2.28-2.77zm11.72 0 2.28 2.76-2.28 2.77-2.29-2.77zm11.71 0 2.28 2.76-2.28 2.77-2.28-2.77zm11.71 0 2.28 2.76-2.28 2.77-2.28-2.77zm11.72 0 2.28 2.76-2.28 2.77-2.28-2.77zm11.71 0 2.28 2.76-2.28 2.77-2.28-2.77zm11.71 0 2.28 2.76-2.28 2.77-2.28-2.77zm11.72 0 2.28 2.76-2.28 2.77-2.28-2.77zm11.71 0 2.28 2.76-2.28 2.77-2.28-2.77zm-134.73 20.88 2.28 2.76-2.28 2.76-2.28-2.76zm11.72 0 2.28 2.76-2.28 2.76-2.28-2.76zm11.72 0 2.28 2.76-2.28 2.76-2.29-2.76zm11.71 0 2.29 2.76-2.29 2.76-2.28-2.76zm11.72 0 2.28 2.76-2.28 2.76-2.28-2.76zm11.72 0 2.28 2.76-2.28 2.76-2.28-2.76zm11.72 0 2.28 2.76-2.28 2.76-2.28-2.76zm11.72 0 2.28 2.76-2.28 2.76-2.29-2.76zm11.71 0 2.28 2.76-2.28 2.76-2.28-2.76zm11.72 0 2.28 2.76-2.28 2.76-2.28-2.76zm11.72 0 2.28 2.76-2.28 2.76-2.28-2.76zm11.72 0 2.28 2.76-2.28 2.76-2.28-2.76zm11.71 0 2.28 2.76-2.28 2.76-2.28-2.76zm-134.73-7.28 2.28 2.76-2.28 2.76-2.28-2.76zm11.72 0 2.28 2.76-2.28 2.76-2.29-2.76zm11.71 0 2.28 2.76-2.28 2.76-2.28-2.76zm11.71 0 2.28 2.76-2.28 2.76-2.28-2.76zm11.72 0 2.28 2.76-2.28 2.76-2.29-2.76zm11.71 0 2.28 2.76-2.28 2.76-2.28-2.76zm11.71 0 2.28 2.76-2.28 2.76-2.28-2.76zm11.72 0 2.28 2.76-2.28 2.76-2.28-2.76zm11.71 0 2.28 2.76-2.28 2.76-2.28-2.76zm11.71 0 2.28 2.76-2.28 2.76-2.28-2.76zm11.72 0 2.28 2.76-2.28 2.76-2.28-2.76zm11.71 0 2.28 2.76-2.28 2.76-2.28-2.76zm-134.73 20.87 2.28 2.76-2.28 2.77-2.28-2.77zm11.72 0 2.28 2.76-2.28 2.77-2.28-2.77zm11.72 0 2.28 2.76-2.28 2.77-2.29-2.77zm11.71 0 2.29 2.76-2.29 2.77-2.28-2.77zm11.72 0 2.28 2.76-2.28 2.77-2.28-2.77zm11.72 0 2.28 2.76-2.28 2.77-2.28-2.77zm11.72 0 2.28 2.76-2.28 2.77-2.28-2.77zm11.72 0 2.28 2.76-2.28 2.77-2.29-2.77zm11.71 0 2.28 2.76-2.28 2.77-2.28-2.77zm11.72 0 2.28 2.76-2.28 2.77-2.28-2.77zm11.72 0 2.28 2.76-2.28 2.77-2.28-2.77zm11.72 0 2.28 2.76-2.28 2.77-2.28-2.77zm11.71 0 2.28 2.76-2.28 2.77-2.28-2.77zm-134.73-7.28 2.28 2.76-2.28 2.76-2.28-2.76zm11.72 0 2.28 2.76-2.28 2.76-2.29-2.76zm11.71 0 2.28 2.76-2.28 2.76-2.28-2.76zm11.71 0 2.28 2.76-2.28 2.76-2.28-2.76zm11.72 0 2.28 2.76-2.28 2.76-2.29-2.76zm11.71 0 2.28 2.76-2.28 2.76-2.28-2.76zm11.71 0 2.28 2.76-2.28 2.76-2.28-2.76zm11.72 0 2.28 2.76-2.28 2.76-2.28-2.76zm11.71 0 2.28 2.76-2.28 2.76-2.28-2.76zm11.71 0 2.28 2.76-2.28 2.76-2.28-2.76zm11.72 0 2.28 2.76-2.28 2.76-2.28-2.76zm11.71 0 2.28 2.76-2.28 2.76-2.28-2.76zm-134.73 20.88 2.28 2.76-2.28 2.76-2.28-2.76zm11.72 0 2.28 2.76-2.28 2.76-2.28-2.76zm11.72 0 2.28 2.76-2.28 2.76-2.29-2.76zm11.71 0 2.29 2.76-2.29 2.76-2.28-2.76zm11.72 0 2.28 2.76-2.28 2.76-2.28-2.76zm11.72 0 2.28 2.76-2.28 2.76-2.28-2.76zm11.72 0 2.28 2.76-2.28 2.76-2.28-2.76zm11.72 0 2.28 2.76-2.28 2.76-2.29-2.76zm11.71 0 2.28 2.76-2.28 2.76-2.28-2.76zm11.72 0 2.28 2.76-2.28 2.76-2.28-2.76zm11.72 0 2.28 2.76-2.28 2.76-2.28-2.76zm11.72 0 2.28 2.76-2.28 2.76-2.28-2.76zm11.71 0 2.28 2.76-2.28 2.76-2.28-2.76zm-134.73-7.28 2.28 2.76-2.28 2.76-2.28-2.76zm11.72 0 2.28 2.76-2.28 2.76-2.29-2.76zm11.71 0 2.28 2.76-2.28 2.76-2.28-2.76zm11.71 0 2.28 2.76-2.28 2.76-2.28-2.76zm11.72 0 2.28 2.76-2.28 2.76-2.29-2.76zm11.71 0 2.28 2.76-2.28 2.76-2.28-2.76zm11.71 0 2.28 2.76-2.28 2.76-2.28-2.76zm11.72 0 2.28 2.76-2.28 2.76-2.28-2.76zm11.71 0 2.28 2.76-2.28 2.76-2.28-2.76zm11.71 0 2.28 2.76-2.28 2.76-2.28-2.76zm11.72 0 2.28 2.76-2.28 2.76-2.28-2.76zm11.71 0 2.28 2.76-2.28 2.76-2.28-2.76zm-134.73 20.87 2.28 2.76-2.28 2.76-2.28-2.76zm11.72 0 2.28 2.76-2.28 2.76-2.28-2.76zm11.72 0 2.28 2.76-2.28 2.76-2.29-2.76zm11.71 0 2.29 2.76-2.29 2.76-2.28-2.76zm11.72 0 2.28 2.76-2.28 2.76-2.28-2.76zm11.72 0 2.28 2.76-2.28 2.76-2.28-2.76zm11.72 0 2.28 2.76-2.28 2.76-2.28-2.76zm11.72 0 2.28 2.76-2.28 2.76-2.29-2.76zm11.71 0 2.28 2.76-2.28 2.76-2.28-2.76zm11.72 0 2.28 2.76-2.28 2.76-2.28-2.76zm11.72 0 2.28 2.76-2.28 2.76-2.28-2.76zm11.72 0 2.28 2.76-2.28 2.76-2.28-2.76zm11.71 0 2.28 2.76-2.28 2.76-2.28-2.76zm-134.73-7.28 2.28 2.76-2.28 2.76-2.28-2.76zm11.72 0 2.28 2.76-2.28 2.76-2.29-2.76zm11.71 0 2.28 2.76-2.28 2.76-2.28-2.76zm11.71 0 2.28 2.76-2.28 2.76-2.28-2.76zm11.72 0 2.28 2.76-2.28 2.76-2.29-2.76zm11.71 0 2.28 2.76-2.28 2.76-2.28-2.76zm11.71 0 2.28 2.76-2.28 2.76-2.28-2.76zm11.72 0 2.28 2.76-2.28 2.76-2.28-2.76zm11.71 0 2.28 2.76-2.28 2.76-2.28-2.76zm11.71 0 2.28 2.76-2.28 2.76-2.28-2.76zm11.72 0 2.28 2.76-2.28 2.76-2.28-2.76zm11.71 0 2.28 2.76-2.28 2.76-2.28-2.76zm-134.73 20.88 2.28 2.76-2.28 2.76-2.28-2.76zm11.72 0 2.28 2.76-2.28 2.76-2.28-2.76zm11.72 0 2.28 2.76-2.28 2.76-2.29-2.76zm11.71 0 2.29 2.76-2.29 2.76-2.28-2.76zm11.72 0 2.28 2.76-2.28 2.76-2.28-2.76zm11.72 0 2.28 2.76-2.28 2.76-2.28-2.76zm11.72 0 2.28 2.76-2.28 2.76-2.28-2.76zm11.72 0 2.28 2.76-2.28 2.76-2.29-2.76zm11.71 0 2.28 2.76-2.28 2.76-2.28-2.76zm11.72 0 2.28 2.76-2.28 2.76-2.28-2.76zm11.72 0 2.28 2.76-2.28 2.76-2.28-2.76zm11.72 0 2.28 2.76-2.28 2.76-2.28-2.76zm11.71 0 2.28 2.76-2.28 2.76-2.28-2.76zm-134.73-7.28 2.28 2.76-2.28 2.76-2.28-2.76zm11.72 0 2.28 2.76-2.28 2.76-2.29-2.76zm11.71 0 2.28 2.76-2.28 2.76-2.28-2.76zm11.71 0 2.28 2.76-2.28 2.76-2.28-2.76zm11.72 0 2.28 2.76-2.28 2.76-2.29-2.76zm11.71 0 2.28 2.76-2.28 2.76-2.28-2.76zm11.71 0 2.28 2.76-2.28 2.76-2.28-2.76zm11.72 0 2.28 2.76-2.28 2.76-2.28-2.76zm11.71 0 2.28 2.76-2.28 2.76-2.28-2.76zm11.71 0 2.28 2.76-2.28 2.76-2.28-2.76zm11.72 0 2.28 2.76-2.28 2.76-2.28-2.76zm11.71 0 2.28 2.76-2.28 2.76-2.28-2.76zm-134.73 20.87 2.28 2.76-2.28 2.76-2.28-2.76zm11.72 0 2.28 2.76-2.28 2.76-2.28-2.76zm11.72 0 2.28 2.76-2.28 2.76-2.29-2.76zm11.71 0 2.29 2.76-2.29 2.76-2.28-2.76zm11.72 0 2.28 2.76-2.28 2.76-2.28-2.76zm11.72 0 2.28 2.76-2.28 2.76-2.28-2.76zm11.72 0 2.28 2.76-2.28 2.76-2.28-2.76zm11.72 0 2.28 2.76-2.28 2.76-2.29-2.76zm11.71 0 2.28 2.76-2.28 2.76-2.28-2.76zm11.72 0 2.28 2.76-2.28 2.76-2.28-2.76zm11.72 0 2.28 2.76-2.28 2.76-2.28-2.76zm11.72 0 2.28 2.76-2.28 2.76-2.28-2.76zm11.71 0 2.28 2.76-2.28 2.76-2.28-2.76zm-134.73-7.28 2.28 2.76-2.28 2.76-2.28-2.76zm11.72 0 2.28 2.76-2.28 2.76-2.29-2.76zm11.71 0 2.28 2.76-2.28 2.76-2.28-2.76zm11.71 0 2.28 2.76-2.28 2.76-2.28-2.76zm11.72 0 2.28 2.76-2.28 2.76-2.29-2.76zm11.71 0 2.28 2.76-2.28 2.76-2.28-2.76zm11.71 0 2.28 2.76-2.28 2.76-2.28-2.76zm11.72 0 2.28 2.76-2.28 2.76-2.28-2.76zm11.71 0 2.28 2.76-2.28 2.76-2.28-2.76zm11.71 0 2.28 2.76-2.28 2.76-2.28-2.76zm11.72 0 2.28 2.76-2.28 2.76-2.28-2.76zm11.71 0 2.28 2.76-2.28 2.76-2.28-2.76zm-134.73 20.88 2.28 2.76-2.28 2.76-2.28-2.76zm11.72 0 2.28 2.76-2.28 2.76-2.28-2.76zm11.72 0 2.28 2.76-2.28 2.76-2.29-2.76zm11.71 0 2.29 2.76-2.29 2.76-2.28-2.76zm11.72 0 2.28 2.76-2.28 2.76-2.28-2.76zm11.72 0 2.28 2.76-2.28 2.76-2.28-2.76zm11.72 0 2.28 2.76-2.28 2.76-2.28-2.76zm11.72 0 2.28 2.76-2.28 2.76-2.29-2.76zm11.71 0 2.28 2.76-2.28 2.76-2.28-2.76zm11.72 0 2.28 2.76-2.28 2.76-2.28-2.76zm11.72 0 2.28 2.76-2.28 2.76-2.28-2.76zm11.72 0 2.28 2.76-2.28 2.76-2.28-2.76zm11.71 0 2.28 2.76-2.28 2.76-2.28-2.76zm-134.73-7.28 2.28 2.76-2.28 2.76-2.28-2.76zm11.72 0 2.28 2.76-2.28 2.76-2.29-2.76zm11.71 0 2.28 2.76-2.28 2.76-2.28-2.76zm11.71 0 2.28 2.76-2.28 2.76-2.28-2.76zm11.72 0 2.28 2.76-2.28 2.76-2.29-2.76zm11.71 0 2.28 2.76-2.28 2.76-2.28-2.76zm11.71 0 2.28 2.76-2.28 2.76-2.28-2.76zm11.72 0 2.28 2.76-2.28 2.76-2.28-2.76zm11.71 0 2.28 2.76-2.28 2.76-2.28-2.76zm11.71 0 2.28 2.76-2.28 2.76-2.28-2.76zm11.72 0 2.28 2.76-2.28 2.76-2.28-2.76zm11.71 0 2.28 2.76-2.28 2.76-2.28-2.76zm-134.73 20.87 2.28 2.76-2.28 2.76-2.28-2.76zm11.72 0 2.28 2.76-2.28 2.76-2.28-2.76zm11.72 0 2.28 2.76-2.28 2.76-2.29-2.76zm11.71 0 2.29 2.76-2.29 2.76-2.28-2.76zm11.72 0 2.28 2.76-2.28 2.76-2.28-2.76zm11.72 0 2.28 2.76-2.28 2.76-2.28-2.76zm11.72 0 2.28 2.76-2.28 2.76-2.28-2.76zm11.72 0 2.28 2.76-2.28 2.76-2.29-2.76zm11.71 0 2.28 2.76-2.28 2.76-2.28-2.76zm11.72 0 2.28 2.76-2.28 2.76-2.28-2.76zm11.72 0 2.28 2.76-2.28 2.76-2.28-2.76zm11.72 0 2.28 2.76-2.28 2.76-2.28-2.76zm11.71 0 2.28 2.76-2.28 2.76-2.28-2.76zm-134.73-7.28 2.28 2.76-2.28 2.76-2.28-2.76zm11.72 0 2.28 2.76-2.28 2.76-2.29-2.76zm11.71 0 2.28 2.76-2.28 2.76-2.28-2.76zm11.71 0 2.28 2.76-2.28 2.76-2.28-2.76zm11.72 0 2.28 2.76-2.28 2.76-2.29-2.76zm11.71 0 2.28 2.76-2.28 2.76-2.28-2.76zm11.71 0 2.28 2.76-2.28 2.76-2.28-2.76zm11.72 0 2.28 2.76-2.28 2.76-2.28-2.76zm11.71 0 2.28 2.76-2.28 2.76-2.28-2.76zm11.71 0 2.28 2.76-2.28 2.76-2.28-2.76zm11.72 0 2.28 2.76-2.28 2.76-2.28-2.76zm11.71 0 2.28 2.76-2.28 2.76-2.28-2.76zm-134.73 20.88 2.28 2.76-2.28 2.76-2.28-2.76zm11.72 0 2.28 2.76-2.28 2.76-2.28-2.76zm11.72 0 2.28 2.76-2.28 2.76-2.29-2.76zm11.71 0 2.29 2.76-2.29 2.76-2.28-2.76zm11.72 0 2.28 2.76-2.28 2.76-2.28-2.76zm11.72 0 2.28 2.76-2.28 2.76-2.28-2.76zm11.72 0 2.28 2.76-2.28 2.76-2.28-2.76zm11.72 0 2.28 2.76-2.28 2.76-2.29-2.76zm11.71 0 2.28 2.76-2.28 2.76-2.28-2.76zm11.72 0 2.28 2.76-2.28 2.76-2.28-2.76zm11.72 0 2.28 2.76-2.28 2.76-2.28-2.76zm11.72 0 2.28 2.76-2.28 2.76-2.28-2.76zm11.71 0 2.28 2.76-2.28 2.76-2.28-2.76zm-134.73-7.28 2.28 2.76-2.28 2.76-2.28-2.76zm11.72 0 2.28 2.76-2.28 2.76-2.29-2.76zm11.71 0 2.28 2.76-2.28 2.76-2.28-2.76zm11.71 0 2.28 2.76-2.28 2.76-2.28-2.76zm11.72 0 2.28 2.76-2.28 2.76-2.29-2.76zm11.71 0 2.28 2.76-2.28 2.76-2.28-2.76zm11.71 0 2.28 2.76-2.28 2.76-2.28-2.76zm11.72 0 2.28 2.76-2.28 2.76-2.28-2.76zm11.71 0 2.28 2.76-2.28 2.76-2.28-2.76zm11.71 0 2.28 2.76-2.28 2.76-2.28-2.76zm11.72 0 2.28 2.76-2.28 2.76-2.28-2.76zm11.71 0 2.28 2.76-2.28 2.76-2.28-2.76z"/></svg>