<svg version="1" xmlns="http://www.w3.org/2000/svg" width="933.333" height="933.333" viewBox="0 0 700.000000 700.000000"><path d="M282.2 79.6c-8.3 2.2-15.7 6.3-22.4 12.3-7.5 6.8-12 13.7-15.3 23.4-2.2 6.8-2.5 9.1-2.5 22.9v15.4L186.3 174c-30.7 11.1-64.3 23.4-74.8 27.2-27.3 10-36.1 16.5-44 32-4.5 9-5.9 16.2-5.3 27.8l.5 9.5 50.7 139c27.9 76.4 51.7 140.9 52.8 143.3 5.6 11.1 17.2 21.4 29.5 26.3 5 2 7.6 2.3 18.8 2.4h13l39-14.3c28.3-10.4 39.7-15 41.9-17 11.9-11.2 3.9-31.6-12.4-31.5-3.2 0-14.6 3.8-40.5 13.3-39.1 14.4-42.9 15.3-49.4 11.5-1.9-1.1-4.3-3.2-5.3-4.6-1.1-1.5-12.3-30.9-24.9-65.5-12.6-34.6-34.9-95.8-49.6-135.9-14.6-40.2-27-74.6-27.5-76.6-1.8-6.7 2.1-15.2 8.3-18.5 2.4-1.2 133.6-49.4 134.6-49.4.2 0 .3 53 .3 117.7 0 98.9.3 118.7 1.5 123.2 5.1 19.3 20.7 34.4 40.5 39.2 3.2.8 11.5 1.3 20 1.4 13.9 0 14.7-.1 19-2.7 5.9-3.4 9-8.9 9-15.7 0-5.8-1.5-9.3-5.7-13.3-4.3-4.1-7.4-4.8-20.6-4.9-15.9-.1-20.3-1.7-24.9-9.4l-2.3-4-.3-146.3c-.1-99 .1-147.6.8-150.2 1.3-4.7 5.1-9.4 9.4-11.8 2.9-1.6 10.2-1.7 97.6-1.7 87.4 0 94.7.1 97.6 1.7 4.3 2.3 8.1 7.1 9.4 11.6.6 2.4 1 46.8 1 131.9 0 88.1.3 129 1.1 131 1.3 3.4 5.5 8 9.1 9.9 1.5.8 5.1 1.4 8 1.4 7.1 0 12.5-3.1 15.8-9l2.5-4.5V257c0-143.3.3-136.1-5.8-149-3.9-8.3-15.7-20.4-23.9-24.3-12.4-5.9-8.4-5.7-115.3-5.6-81.5 0-98.9.3-103.3 1.5z"/><path d="M368.2 206c-44.7 11.7-67.2 61-46.8 102.5 9.1 18.4 27.8 33.3 47.8 38 8.2 1.9 25.5 1.9 33.8-.1 8.7-2 21.2-8.2 28.5-14.1 11.8-9.6 21.6-25 24.9-39.3 2.1-8.6 2-25.6 0-33.9-6.4-26.1-26.7-46.4-52.9-53.1-10.3-2.6-25.2-2.6-35.3 0zm34.6 39c30.1 16 22.4 59.9-11.5 66.2-11.9 2.2-26.3-3.8-33.8-14-4.8-6.5-6.8-13.1-6.7-22.1.1-15.1 10.1-28.3 25.2-33.2 1.4-.5 6.6-.7 11.5-.6 8 .3 9.7.6 15.3 3.7zM388.9 379.3c-10.4 3-19 10.4-23.8 20.6-2.2 4.8-2.6 6.9-2.6 14.6l.1 9 39.6 105.1c21.8 57.9 40.3 106.5 41.1 108 2.4 4.6 9.6 11.2 15.1 13.9 14.1 6.9 29.1 4.9 40.9-5.6 7.9-6.9 9.4-11.2 19.7-57.9l9.3-42.5 42.6-9.5c26.9-5.9 44.3-10.3 47.3-11.8 6.7-3.3 13.5-10.2 16.6-17 2.4-5 2.7-6.9 2.7-15.7 0-8.4-.4-10.8-2.3-14.6-3-6-8.5-12.4-13.3-15.5-2.1-1.3-51.3-20.2-109.4-42-114.3-42.8-112.5-42.2-123.6-39.1zM502.7 454c53.4 20.1 97.1 36.6 96.9 36.7-.2.2-20.5 4.8-45.2 10.3-24.7 5.5-46.3 10.5-48.1 11.1-3.3 1.1-9.7 7.4-10.7 10.5-.3 1.1-5.1 22.3-10.6 47.3-5.5 25-10.1 45.6-10.3 45.8-.2.1-16.2-42.1-35.7-94-19.4-51.8-36.4-97-37.6-100.5L399 415l3.3 1.3c1.7.7 46.9 17.7 100.4 37.7z"/></svg>